<svg version="1.1" xmlns="http://www.w3.org/2000/svg" xmlns:xlink="http://www.w3.org/1999/xlink" data-browser="Chrome[57.0]" preserveAspectRatio="xMidYMid meet" viewBox="0 0 188 55"><g class="logo__item logo__item--active" id="logo__item--business">
                <g class="logo__item__inner" transform="translate(62.25 43.63900000000001) scale(1.379464558725707 1.379464558725707) rotate(0 0 0)">
                    <text letter-spacing="-3" font-family="'Montserrat-Regular'" font-size="32px" font-style="normal" font-weight="normal" alignment-baseline="auto" dominant-baseline="auto" fill="#8BC34A" dy="">Cointo</text>
                </g>
            </g><g class="logo__item" id="logo__item--logo_0">
    <g class="logo__item__inner" transform="translate(-1.9529999999999745 -10) scale(0.46442 0.46442) rotate(0 0 0)">
        <g>
	<path fill="#01528f" d="M 98.3 125.5 c 0.4 -0.2 0.8 -0.4 1.3 -0.7 c -0.3 0.2 -0.7 0.3 -1 0.5 C 98.4 125.4 98.4 125.4 98.3 125.5 Z"></path>
	<path fill="#ffffff" d="M 62.1 42.8 L 44 61 V 122 c 6.2 -0.9 12.3 -2.4 18.2 -4.4 V 42.8 Z"></path>
	<path fill="#ffffff" d="M 40 122.5 V 67.2 L 21.8 85.3 v 37.3 c 2.9 0.3 5.8 0.5 8.9 0.5 C 33.8 123.1 36.9 122.9 40 122.5 Z"></path>
	<path fill="#ffffff" d="M 87.8 121 v 7.5 c 3.7 -0.3 7.2 -1.3 10.4 -3 c 0.1 -0.1 0.2 -0.1 0.2 -0.2 c 0.3 -0.2 0.7 -0.3 1 -0.5 c 2.4 -1.4 4.6 -3.2 6.5 -5.2 v -10.5 C 100.4 113.7 94.3 117.7 87.8 121 Z"></path>
	<path fill="#ffffff" d="M 106 88.8 V 54.3 L 87.8 36.1 v 68.5 C 94.5 100 100.6 94.7 106 88.8 Z"></path>
	<path fill="#ffffff" d="M 67.6 128.6 h 16.6 v -6 C 78.9 125.1 73.4 127.2 67.6 128.6 Z"></path>
	<path fill="#ffffff" d="M 84.3 71.8 L 66.1 53.7 v 62.4 c 6.3 -2.5 12.4 -5.6 18.2 -9.2 V 71.8 Z"></path>
	<linearGradient id="logo__item--logo_0__7" gradientUnits="objectBoundingBox" x1="0.5" y1="0" x2="0.5" y2="1"><stop offset="0" style="stop-color:#333333"></stop><stop offset="1" style="stop-color:#999999"></stop></linearGradient><path fill="#8BC34A" d="M 119.8 28.1 h -75 c -18.8 0 -34.1 16 -34.1 35.7 v 70.4 H 44 h 18.2 h 23.6 c 18.8 0 34.1 -16 34.1 -35.7 v -2.9 c -1.8 2.2 -3.7 4.3 -5.8 6.3 c -0.7 6.9 -3.7 13 -8 17.7 c -1.9 2 -4.1 3.8 -6.5 5.2 c -0.4 0.2 -0.8 0.5 -1.3 0.7 c -3.2 1.7 -6.7 2.7 -10.4 3 c -0.7 0.1 -1.4 0.1 -2.2 0.1 h -1.4 H 67.6 c 0 0 -0.1 0 -0.1 0 h -1.4 v 0 h -4 H 49.4 H 44 h -4 v 0 H 28.5 h -3.6 c 0 0 -0.1 0 -0.1 0 h -2.9 h -5.6 v -3 v -2.4 V 63.8 c 0 -16.6 12.8 -30.1 28.5 -30.1 h 69.4 v 44.7 c 2.1 -3 3.9 -6.1 5.6 -9.3 V 28.1 Z"></path>
	<path fill="#8BC34A" d="M 135.1 30.6 c -0.3 0.9 -0.6 1.7 -1 2.5 c -2.7 7.1 -5.5 12.4 -11.4 20.5 c 1.8 0.6 3.6 1.2 5.4 1.9 c -1.8 7.3 -4.7 14.3 -8.4 20.9 c -1.7 3 -3.6 5.8 -5.6 8.6 c -2.5 3.5 -5.3 6.8 -8.2 9.9 c -5.4 5.7 -11.5 10.8 -18.2 15.2 c -1.2 0.8 -2.4 1.5 -3.6 2.3 c -5.7 3.4 -11.8 6.3 -18.2 8.5 c -1.3 0.5 -2.7 0.9 -4 1.3 c -5.9 1.8 -12 3 -18.2 3.5 c -0.2 0 -0.4 0.1 -0.6 0.1 c -1.2 0.1 -2.3 0.1 -3.4 0.1 c -6.4 0.2 -12.4 -0.2 -18.2 -1.4 c -1.1 -0.2 -2.1 -0.5 -3.2 -0.8 c -0.8 -0.2 -1.6 -0.4 -2.4 -0.6 v 2.4 c 0.7 0.3 1.3 0.6 2 0.9 c 0.7 0.3 1.4 0.5 2.2 0.8 c 0.5 0.2 0.9 0.3 1.4 0.5 c 1 0.3 1.9 0.6 2.9 0.9 c 0 0 0.1 0 0.1 0 h 3.6 H 40 v 0 h 4 h 5.5 h 12.7 h 4 v 0 h 1.4 c 0 0 0.1 0 0.1 0 c 5.7 -1.5 11.3 -3.5 16.6 -6 c 1.2 -0.6 2.4 -1.1 3.6 -1.7 c 6.5 -3.3 12.5 -7.3 18.2 -11.8 c 2.8 -2.3 5.5 -4.7 8 -7.2 c 2 -2 3.9 -4.1 5.8 -6.3 c 8.2 -9.6 14.4 -20.6 17.9 -32.3 c 0.4 -1.3 0.9 -2.7 1.2 -4 c 0.5 0.2 1 0.4 1.5 0.6 c 1.2 0.5 2.5 0.9 3.7 1.4 C 142.2 48.7 140.6 42.2 135.1 30.6 Z"></path>
</g>
    </g>
</g></svg>