<?xml version="1.0" encoding="UTF-8" standalone="no"?>
<!-- Created with Inkscape (http://www.inkscape.org/) -->

<svg
   xmlns:dc="http://purl.org/dc/elements/1.1/"
   xmlns:cc="http://creativecommons.org/ns#"
   xmlns:rdf="http://www.w3.org/1999/02/22-rdf-syntax-ns#"
   xmlns:svg="http://www.w3.org/2000/svg"
   xmlns="http://www.w3.org/2000/svg"
   xmlns:sodipodi="http://sodipodi.sourceforge.net/DTD/sodipodi-0.dtd"
   xmlns:inkscape="http://www.inkscape.org/namespaces/inkscape"
   width="128"
   height="128"
   viewBox="0 0 33.866667 33.866667"
   version="1.1"
   id="svg8"
   inkscape:version="0.92.2 (5c3e80d, 2017-08-06)"
   sodipodi:docname="logo.svg">
  <defs
     id="defs2">
    <clipPath
       clipPathUnits="userSpaceOnUse"
       id="clipPath18">
      <path
         d="M 0,768 H 1366 V 0 H 0 Z"
         id="path16"
         inkscape:connector-curvature="0" />
    </clipPath>
  </defs>
  <sodipodi:namedview
     id="base"
     pagecolor="#ffffff"
     bordercolor="#666666"
     borderopacity="1.0"
     inkscape:pageopacity="0.0"
     inkscape:pageshadow="2"
     inkscape:zoom="1.979899"
     inkscape:cx="-51.364216"
     inkscape:cy="122.63562"
     inkscape:document-units="mm"
     inkscape:current-layer="layer1"
     showgrid="false"
     units="px"
     width="128px"
     inkscape:window-width="1920"
     inkscape:window-height="1017"
     inkscape:window-x="-8"
     inkscape:window-y="-8"
     inkscape:window-maximized="1" />
  <metadata
     id="metadata5">
    <rdf:RDF>
      <cc:Work
         rdf:about="">
        <dc:format>image/svg+xml</dc:format>
        <dc:type
           rdf:resource="http://purl.org/dc/dcmitype/StillImage" />
        <dc:title></dc:title>
      </cc:Work>
    </rdf:RDF>
  </metadata>
  <g
     inkscape:label="Ebene 1"
     inkscape:groupmode="layer"
     id="layer1"
     transform="translate(0,-263.13333)">
    <g
       id="g10"
       transform="matrix(0.13463086,0,0,-0.13031011,-75.163676,326.49711)">
      <g
         transform="matrix(2.3064173,0,0,2.3457263,-566.48951,-495.78535)"
         id="g12">
        <g
           id="g14"
           clip-path="url(#clipPath18)">
          <g
             id="g20"
             transform="translate(581.7358,368.21)">
            <path
               inkscape:connector-curvature="0"
               d="m 0,0 c -4.701,0 -9.402,0.036 -14.103,-0.028 -0.995,-0.014 -1.39,0.256 -1.643,1.221 -1.322,5.046 -3.989,9.262 -8.025,12.591 -3.433,2.832 -7.315,4.625 -11.73,5.367 -1.563,0.263 -3.108,0.415 -4.661,0.332 -9.394,-0.5 -16.484,-4.784 -21.046,-13.061 -3.301,-5.989 -3.778,-12.361 -1.843,-18.809 1.803,-6.003 5.56,-10.609 10.988,-13.88 5.426,-3.27 11.287,-4.096 17.341,-2.947 7.371,1.4 12.936,5.569 16.684,12.12 1.136,1.984 1.885,4.106 2.49,6.286 0.15,0.537 0.379,0.683 0.91,0.682 9.742,-0.014 19.485,-0.02 29.227,0.01 0.821,0.002 0.963,-0.334 0.853,-0.996 -0.335,-2.021 -0.591,-4.059 -1.031,-6.056 -0.919,-4.174 -2.343,-8.178 -4.208,-12.033 -2.561,-5.291 -5.894,-10.028 -9.944,-14.276 -4.467,-4.683 -9.656,-8.394 -15.412,-11.309 -2.732,-1.384 -5.641,-2.363 -8.532,-3.369 -0.436,-0.153 -0.505,0.108 -0.505,0.457 0.002,3.247 0.001,6.494 -10e-4,9.741 0,0.66 0.6,0.716 0.986,0.862 3.641,1.38 7.013,3.244 10.151,5.537 7.173,5.241 12.299,12.06 15.609,20.277 0.2,0.494 0.173,0.759 -0.466,0.756 -3.248,-0.017 -6.495,-0.017 -9.742,-0.003 -0.483,0.002 -0.746,-0.205 -0.954,-0.614 -2.651,-5.195 -6.42,-9.421 -11.206,-12.723 -2.865,-1.976 -5.981,-3.452 -9.321,-4.496 -3.465,-1.083 -7.008,-1.746 -10.608,-1.647 -10.81,0.3 -19.813,4.516 -26.769,12.875 -3.792,4.556 -6.183,9.813 -7.279,15.612 -0.788,4.167 -0.839,8.416 -0.051,12.581 1.75,9.25 6.471,16.702 14.12,22.219 3.152,2.274 6.635,3.92 10.383,5.032 3.391,1.006 6.824,1.362 10.352,1.342 10.305,-0.061 18.694,-4.24 25.572,-11.713 1.929,-2.095 3.539,-4.433 4.782,-7.01 0.24,-0.498 0.609,-0.738 1.236,-0.73 3.098,0.039 6.196,0.027 9.294,0.004 0.718,-0.005 0.932,0.13 0.625,0.893 -4.1,10.2 -10.886,18.027 -20.526,23.356 -1.784,0.985 -3.624,1.839 -5.535,2.536 -0.507,0.185 -0.668,0.449 -0.664,0.98 0.024,3.06 0.029,6.121 -0.002,9.182 -0.006,0.691 0.162,0.797 0.82,0.607 3.149,-0.908 6.161,-2.155 9.066,-3.65 C -7.953,40.832 -2.428,36.476 2.249,31.045 6.551,26.05 9.855,20.486 12.195,14.309 13.747,10.213 14.667,5.99 15.371,1.698 15.389,1.588 15.39,1.475 15.414,1.365 15.635,0.367 15.409,-0.052 14.219,-0.032 9.48,0.046 4.74,0 0,0"
               style="fill:#ff7043;fill-opacity:1;fill-rule:nonzero;stroke:none"
               id="path22" />
          </g>
          <g
             id="g24"
             transform="translate(541.7324,307.8896)">
            <path
               inkscape:connector-curvature="0"
               d="m 0,0 c -4.274,-0.218 -8.485,0.393 -12.602,1.412 -6.19,1.532 -11.974,4.051 -17.323,7.604 -6.331,4.205 -11.573,9.46 -15.74,15.779 -3.218,4.882 -5.568,10.165 -7.11,15.831 -1.553,5.703 -2.172,11.485 -1.892,17.365 0.214,4.518 1.019,8.948 2.355,13.273 2.499,8.086 6.611,15.245 12.377,21.448 4.233,4.553 9.092,8.272 14.579,11.209 3.582,1.917 7.326,3.423 11.216,4.489 6.195,1.696 12.533,2.227 18.949,1.748 0.624,-0.047 0.821,-0.267 0.815,-0.889 -0.028,-2.836 -0.036,-5.673 0.002,-8.509 0.01,-0.742 -0.261,-0.895 -0.926,-0.804 -3.428,0.468 -6.872,0.305 -10.269,-0.141 -5.214,-0.685 -10.196,-2.264 -14.856,-4.725 -5.19,-2.741 -9.714,-6.35 -13.498,-10.848 -4.3,-5.111 -7.382,-10.877 -9.086,-17.347 -1.563,-5.936 -2.045,-11.919 -1.131,-18.043 0.986,-6.607 3.21,-12.689 6.83,-18.29 3.24,-5.013 7.307,-9.218 12.223,-12.592 4.099,-2.814 8.532,-4.895 13.343,-6.244 C -6.747,10.324 -1.686,9.823 3.472,10.043 3.658,10.051 3.845,10.06 4.03,10.082 5.612,10.273 5.61,10.274 5.61,8.6 5.61,6.062 5.59,3.523 5.626,0.986 5.636,0.281 5.464,-0.034 4.7,-0.014 3.134,0.029 1.567,0 0,0"
               style="fill:#ff7043;fill-opacity:1;fill-rule:nonzero;stroke:none"
               id="path26" />
          </g>
        </g>
      </g>
    </g>
  </g>
</svg>
